<?xml version="1.0" encoding="UTF-8"?>
<svg width="126px" height="54px" viewBox="0 0 126 54" version="1.1" xmlns="http://www.w3.org/2000/svg" xmlns:xlink="http://www.w3.org/1999/xlink">
    <!-- Generator: Sketch 59 (86127) - https://sketch.com -->
    <title>header_logo</title>
    <desc>Created with Sketch.</desc>
    <g id="header_logo" stroke="none" stroke-width="1" fill="none" fill-rule="evenodd">
        <g id="Header_logo" fill-rule="nonzero">
            <path d="M97.892,35.3535995 C98.728194,35.3529935 99.4824145,35.8561631 99.8029632,36.6284774 C100.123512,37.4007917 99.9472608,38.2901531 99.3563971,38.8818463 C98.7655333,39.4735395 97.87642,39.651038 97.1036568,39.331573 C96.3308936,39.012108 95.8266665,38.2585941 95.8261,37.4224 L95.8261,37.421 C95.8275304,36.2803849 96.7513862,35.3558583 97.892,35.3535995" id="Path" fill="#991F33"></path>
            <path d="M104.1906,37.4208 C104.201621,36.2934458 105.122587,35.3874686 106.24997,35.3949451 C107.377353,35.4024216 108.286222,36.3205339 108.282303,37.4479351 C108.278358,38.5753363 107.363108,39.487087 106.2357,39.4867001 C105.103528,39.4737301 104.192113,38.5530449 104.1906,37.4208" id="Path" fill="#991F33"></path>
            <path d="M114.6024,35.3535995 C115.743998,35.3544283 116.668852,36.2804012 116.6683,37.4219993 C116.667748,38.5635973 115.741998,39.4886753 114.6004,39.4883995 C113.458802,39.4881235 112.5335,38.5625982 112.5335,37.421 C112.5335,36.8724314 112.75152,36.3463527 113.139558,35.9585969 C113.527595,35.570841 114.053832,35.353202 114.6024,35.3535995" id="Path" fill="#FFCF2E"></path>
            <path d="M102.0054,32.2320005 C101.169206,32.2326065 100.414985,31.7294369 100.094437,30.9571226 C99.7738881,30.1848083 99.9501392,29.2954469 100.541003,28.7037537 C101.131867,28.1120605 102.02098,27.934562 102.793743,28.254027 C103.566506,28.573492 104.070734,29.3270059 104.0713,30.1632 L104.0713,30.1661 C104.069044,31.3061294 103.145429,32.2297442 102.0054,32.2320005" id="Path" fill="#991F33"></path>
            <path d="M93.5415,32.2320005 C92.7052785,32.2315549 91.9516725,31.7274046 91.632113,30.9546509 C91.3125534,30.1818973 91.4899779,29.2927347 92.0816476,28.7018087 C92.6733173,28.1108827 93.5627023,27.9345767 94.3350534,28.2551079 C95.1074046,28.5756391 95.6106066,29.3298787 95.6100005,30.1661 C95.6096288,30.7143994 95.3914548,31.240093 95.0034767,31.6275273 C94.6154985,32.0149616 94.0894994,32.232398 93.5412,32.2320005" id="Path" fill="#991F33"></path>
            <path d="M110.4675,32.232 C109.631306,32.232 108.87745,31.7282833 108.557462,30.9557366 C108.237474,30.1831899 108.41437,29.2939565 109.005663,28.7026921 C109.596956,28.1114277 110.486198,27.9345744 111.258729,28.2546002 C112.03126,28.5746259 112.5349,29.3285057 112.5349,30.1647 L112.5349,30.1661 C112.533521,31.307079 111.60848,32.2314492 110.4675,32.232" id="Path" fill="#FFCF2E"></path>
            <path d="M118.9314,32.2320005 C118.095206,32.2326065 117.340985,31.7294369 117.020437,30.9571226 C116.699888,30.1848083 116.876139,29.2954469 117.467003,28.7037537 C118.057867,28.1120605 118.94698,27.934562 119.719743,28.254027 C120.492506,28.573492 120.996734,29.3270059 120.9973,30.1632 L120.9973,30.1661 C120.995044,31.3061294 120.071429,32.2297442 118.9314,32.2320005" id="Path" fill="#FFCF2E"></path>
            <path d="M102.0044,42.6092995 C102.840594,42.6086935 103.594815,43.1118631 103.915363,43.8841774 C104.235912,44.6564917 104.059661,45.5458531 103.468797,46.1375463 C102.877933,46.7292395 101.98882,46.906738 101.216057,46.587273 C100.443294,46.267808 99.9390665,45.5142941 99.9385,44.6781 L99.9385,44.6767 C99.9399304,43.5360849 100.863786,42.6115583 102.0044,42.6092995" id="Path" fill="#991F33"></path>
            <path d="M93.5423,42.6092995 C94.378494,42.6086935 95.1327145,43.1118631 95.4532632,43.8841774 C95.7738119,44.6564917 95.5975608,45.5458531 95.0066971,46.1375463 C94.4158333,46.7292395 93.52672,46.906738 92.7539568,46.587273 C91.9811936,46.267808 91.4769665,45.5142941 91.4764,44.6781 L91.4764,44.6767 C91.4771159,43.5357887 92.4013895,42.610844 93.5423,42.6092995" id="Path" fill="#991F33"></path>
            <path d="M110.4683,42.6092995 C111.609898,42.6101283 112.534752,43.5361012 112.5342,44.6776993 C112.533648,45.8192973 111.607898,46.7443753 110.4663,46.7440995 C109.324702,46.7438235 108.3994,45.8182982 108.3994,44.6767 C108.3994,44.1281314 108.61742,43.6020527 109.005458,43.2142969 C109.393495,42.826541 109.919732,42.608902 110.4683,42.6092995" id="Path" fill="#FFCF2E"></path>
            <path d="M118.9314,42.6093 C119.767594,42.6093 120.521474,43.1129397 120.8415,43.885471 C121.161526,44.6580022 120.984672,45.5472442 120.393408,46.1385372 C119.802144,46.7298302 118.91291,46.9067265 118.140363,46.5867381 C117.367817,46.2667497 116.8641,45.5128943 116.8641,44.6767 L116.8641,44.6767 C116.865532,43.5355394 117.790239,42.6107876 118.9314,42.6093" id="Path" fill="#FFCF2E"></path>
            <path d="M97.892,24.9766 C97.0558057,24.9766 96.3019259,24.4729603 95.9819002,23.700429 C95.6618744,22.9278978 95.8387277,22.0386558 96.4299921,21.4473628 C97.0212565,20.8560698 97.9104899,20.6791735 98.6830366,20.9991619 C99.4555833,21.3191503 99.9593,22.0730057 99.9593,22.9092 L99.9593,22.9107 C99.9579762,24.0516629 99.0329635,24.9760491 97.892,24.9766" id="Path" fill="#991F33"></path>
            <path d="M89.3326,24.9766006 C88.190807,24.9774281 87.2645294,24.0524934 87.2637005,22.9107004 C87.2628728,21.7689073 88.1878073,20.8426296 89.3296004,20.8418005 C90.4713934,20.8409726 91.3976713,21.765907 91.3985,22.9077 L91.3985,22.9107 C91.3962442,24.0507294 90.4726294,24.9743442 89.3326,24.9766006" id="Path" fill="#991F33"></path>
            <path d="M114.6024,24.9766006 C113.766206,24.9772469 113.011961,24.4741138 112.691375,23.701815 C112.370789,22.9295162 112.546997,22.0401463 113.137832,21.4484245 C113.728667,20.8567027 114.617772,20.6791613 115.390551,20.9985889 C116.163329,21.3180165 116.667593,22.071506 116.6682,22.9077 L116.6682,22.9107 C116.665944,24.0506904 115.74239,24.9742892 114.6024,24.9766006" id="Path" fill="#FFCF2E"></path>
            <path d="M123.1388,24.9766 C121.997007,24.9757713 121.072073,24.0494934 121.072901,22.9077004 C121.07373,21.7659073 122.000007,20.8409728 123.1418,20.8418005 C124.283593,20.8426294 125.208528,21.768907 125.207701,22.9107 L125.207701,22.9107 C125.205825,24.0520587 124.28016,24.9763809 123.1388,24.9766" id="Path" fill="#FFCF2E"></path>
            <path d="M97.8913,49.8652995 C98.727494,49.8646935 99.4817145,50.3678631 99.8022632,51.1401774 C100.122812,51.9124917 99.9465608,52.8018531 99.3556971,53.3935463 C98.7648333,53.9852395 97.87572,54.162738 97.1029568,53.843273 C96.3301936,53.523808 95.8259665,52.7702941 95.8254,51.9341 L95.8254,51.9312 C95.8276558,50.7911706 96.7512706,49.8675558 97.8913,49.8652995" id="Path" fill="#991F33"></path>
            <path d="M89.3326,49.8653 C90.1687943,49.8653 90.9226741,50.3689397 91.2426998,51.141471 C91.5627256,51.9140022 91.3858723,52.8032442 90.7946079,53.3945372 C90.2033435,53.9858302 89.3141101,54.1627265 88.5415634,53.8427381 C87.7690167,53.5227497 87.2653,52.7688943 87.2653,51.9327 L87.2653,51.9312 C87.2666238,50.7902371 88.1916365,49.8658509 89.3326,49.8653" id="Path" fill="#991F33"></path>
            <path d="M114.6024,49.8653 C115.744193,49.8653 116.6698,50.7909065 116.6698,51.9327 C116.6698,53.0744935 115.744193,54.0001 114.6024,54.0001 C113.460607,54.0001 112.535,53.0744935 112.535,51.9327 L112.535,51.9312 C112.536379,50.790221 113.46142,49.8658508 114.6024,49.8653" id="Path" fill="#FFCF2E"></path>
            <path d="M123.14,49.8653 C123.976203,49.8653 124.73009,50.3689506 125.050109,51.1414941 C125.370129,51.9140376 125.193258,52.8032874 124.601973,53.3945726 C124.010687,53.9858577 123.121438,54.1627293 122.348894,53.8427094 C121.576351,53.5226895 121.0727,52.7688034 121.0727,51.9326 L121.0727,51.9312 C121.074024,50.7902371 121.999037,49.8658509 123.14,49.8653" id="Path" fill="#FFCF2E"></path>
            <path d="M5.2411,8.3312 C6.30346754,8.35250043 7.31190894,7.86426313 7.9541,7.0177 L9.3982,8.5048 C8.40549756,9.72185404 6.92054894,10.4312048 5.35,10.4386 C3.92346897,10.4880132 2.53788202,9.95679941 1.51,8.9664 C0.507834804,7.99428878 -0.0393620412,6.64556723 0.0022,5.25 C-0.0337719146,3.84128147 0.52358792,2.48222477 1.5383,1.5044 C2.53636599,0.514788046 3.89372357,-0.0267689692 5.2989,0.004 C6.89773459,-0.0218940927 8.4235157,0.672317039 9.4544,1.8947 L8.0549,3.4812 C7.43219866,2.64081056 6.4459299,2.14791765 5.4,2.1544 C4.59537195,2.13790177 3.81599036,2.43563579 3.2273,2.9844 C2.61521166,3.56295015 2.28571588,4.3795695 2.3249,5.2209 C2.28681805,6.05881297 2.59485719,6.87553796 3.1768,7.4796 C3.71764875,8.03663522 4.46491185,8.34500251 5.2412,8.3315" id="Path" fill="#991F33"></path>
            <polygon id="Path" fill="#991F33" points="20.322 0.234 20.322 4.448 16.31 4.448 16.31 0.234 14.059 0.234 14.059 10.324 16.31 10.324 16.31 6.353 20.322 6.353 20.322 10.324 22.573 10.324 22.573 0.234"></polygon>
            <polygon id="Path" fill="#991F33" points="27.943 0.234 27.943 10.324 35.376 10.324 35.376 8.332 30.193 8.332 30.193 6.239 34.711 6.239 34.711 4.319 30.193 4.319 30.193 2.241 35.217 2.241 35.217 0.234"></polygon>
            <path d="M42.6281,2.248 C42.4146473,2.41926139 42.2942179,2.68097599 42.303,2.9545 C42.3004688,3.24228864 42.4522597,3.50939176 42.7008,3.6545 C43.2813401,3.94041599 43.8978504,4.14658095 44.5336,4.2674 C45.3517362,4.43524079 46.1167635,4.799582 46.7627,5.329 C47.3191688,5.86617407 47.6098568,6.62177244 47.5569,7.3934 C47.5813061,8.24606664 47.2044125,9.06082457 46.5388,9.5943 C45.7757501,10.1851916 44.8270012,10.484623 43.863,10.4388 C42.2481201,10.4319958 40.6996722,9.79513614 39.5473,8.6638 L40.8888,7.0179 C41.6899078,7.84162096 42.7610547,8.34902313 43.9059,8.4471 C44.2510434,8.46671332 44.5931314,8.37291216 44.88,8.18 C45.110817,8.01292576 45.2436723,7.74219461 45.2346,7.4574 C45.2414871,7.16812212 45.0991061,6.89563754 44.8577,6.7361 C44.3947202,6.47710719 43.8931239,6.29420821 43.3721,6.1944 C42.4437904,6.02469344 41.564194,5.65280074 40.7957,5.1051 C40.213888,4.56630309 39.9132582,3.78917488 39.981,2.9991 C39.9362952,2.13527259 40.3224637,1.30540925 41.0121,0.7833 C41.7604162,0.24441703 42.6667286,-0.0302347892 43.5883,0.0026 C44.2762605,0.00524132639 44.958962,0.122618667 45.6083,0.3499 C46.2516319,0.563970656 46.8491458,0.89671427 47.3699,1.3309 L46.23,2.9767 C45.4611884,2.35194835 44.5059346,2.00151854 43.5155,1.9809 C43.1975061,1.96291198 42.8833333,2.05747539 42.6281,2.248" id="Path" fill="#991F33"></path>
            <path d="M56.5043,3.2354 L57.76,6.1665 L55.234,6.1665 L56.5043,3.2354 Z M55.4076,0.2346 L51.0488,10.3234 L53.4456,10.3234 L54.3835,8.1434 L58.6117,8.1434 L59.5496,10.3234 L61.9464,10.3234 L57.5877,0.2346 L55.4076,0.2346 Z" id="Shape" fill="#991F33"></path>
            <path d="M71.2973,5.1061 C71.5916079,4.72848696 71.7358929,4.25538451 71.7024,3.7778 C71.7492908,3.3011461 71.5508705,2.83330665 71.1756,2.5357 C70.6776346,2.25423284 70.1076059,2.12617207 69.5371,2.1676 L68.2533,2.1676 L68.2533,5.56 L69.7685,5.56 C70.3189073,5.62655256 70.8722966,5.46215765 71.2971,5.1059 M72.9504,1.1359 C73.705674,1.85112889 74.0959094,2.87024247 74.0115,3.907 C74.1005794,4.93957598 73.6967545,5.95356832 72.9222,6.6422 C71.9400214,7.29235617 70.7694505,7.59726817 69.5949,7.5089 L68.2534,7.5089 L68.2534,10.3227 L66.002,10.3227 L66.002,0.2353 L69.5668,0.2353 C70.7650429,0.13414861 71.9611897,0.452619122 72.9505,1.1362" id="Shape" fill="#991F33"></path>
            <polygon id="Path" fill="#991F33" points="78.659 0.234 78.659 10.324 86.092 10.324 86.092 8.332 80.911 8.332 80.911 6.239 85.427 6.239 85.427 4.319 80.911 4.319 80.911 2.241 85.933 2.241 85.933 0.234"></polygon>
            <path d="M95.1253,3.2354 L96.3824,6.1665 L93.8549,6.1665 L95.1253,3.2354 Z M94.03,0.2346 L89.67,10.3234 L92.0668,10.3234 L93.0048,8.1434 L97.2329,8.1434 L98.1709,10.3234 L100.5677,10.3234 L96.2087,0.2346 L94.03,0.2346 Z" id="Shape" fill="#991F33"></path>
            <path d="M104.6217,0.2347 L106.8746,0.2347 L106.8746,4.3768 L110.6827,0.2347 L113.4684,0.2347 L109.4568,4.6947 C109.8026,5.17563333 110.4426,6.07253333 111.3768,7.3854 C112.311,8.69826667 113.008033,9.67726667 113.4679,10.3224 L110.8411,10.3224 L107.8837,6.34 L106.8746,7.465 L106.8746,10.3219 L104.6217,10.3219 L104.6217,0.2347 Z" id="Path" fill="#991F33"></path>
            <polygon id="Path" fill="#991F33" points="117.756 0.234 117.756 10.324 125.188 10.324 125.188 8.332 120.006 8.332 120.006 6.239 124.525 6.239 124.525 4.319 120.006 4.319 120.006 2.241 125.029 2.241 125.029 0.234"></polygon>
            <path d="M16.5805,46.1133 L7.9372,46.1133 L7.89,45.0818 L7.89,28.7287 L16.5808,28.7287 C21.3814247,28.7287 25.2731,32.6203753 25.2731,37.421 C25.2731,42.2216247 21.3814247,46.1133 16.5808,46.1133 M16.5808,20.8422 L0.0018,20.8422 L0.0018,54 L16.5805,54 C25.7207939,53.9775516 33.118583,46.5615714 33.118583,37.42125 C33.118583,28.2809286 25.7207939,20.8649484 16.5805,20.8422" id="Shape" fill="#FFCF2E"></path>
            <polygon id="Path" fill="#FFCF2E" points="68.97 20.843 68.97 33.124 51.472 33.124 51.472 20.843 42.878 20.843 42.878 54 51.472 54 51.472 41.718 68.97 41.718 68.97 54 77.566 54 77.566 20.843"></polygon>
        </g>
    </g>
</svg>